<svg width="24" height="24" viewBox="0 0 24 24" fill="none" xmlns="http://www.w3.org/2000/svg">
<path d="M12 21.5833C11.69 21.5833 11.39 21.5433 11.14 21.4533C7.32 20.1433 1.25 15.4933 1.25 8.62326C1.25 5.12326 4.08 2.28326 7.56 2.28326C9.25 2.28326 10.83 2.94326 12 4.12326C12.5808 3.53712 13.2726 3.07254 14.0349 2.75662C14.7972 2.44071 15.6148 2.27979 16.44 2.28326C19.92 2.28326 22.75 5.13326 22.75 8.62326C22.75 15.5033 16.68 20.1433 12.86 21.4533C12.61 21.5433 12.31 21.5833 12 21.5833ZM7.56 3.78326C4.91 3.78326 2.75 5.95326 2.75 8.62326C2.75 15.4533 9.32 19.2533 11.63 20.0433C11.81 20.1033 12.2 20.1033 12.38 20.0433C14.68 19.2533 21.26 15.4633 21.26 8.62326C21.26 5.95326 19.1 3.78326 16.45 3.78326C14.93 3.78326 13.52 4.49326 12.61 5.72326C12.33 6.10326 11.69 6.10326 11.41 5.72326C10.9656 5.12034 10.3855 4.63053 9.71668 4.29349C9.04781 3.95645 8.30898 3.78166 7.56 3.78326Z" fill="#1F2937"/>
</svg>
