<svg width="24" height="24" viewBox="0 0 24 24" fill="none" xmlns="http://www.w3.org/2000/svg">
<path d="M12.02 2.91C8.71 2.91 6.02 5.6 6.02 8.91V11.8C6.02 12.41 5.76 13.34 5.45 13.86L4.3 15.77C3.59 16.95 4.08 18.26 5.38 18.7C9.69 20.14 14.34 20.14 18.65 18.7C19.86 18.3 20.39 16.87 19.73 15.77L18.58 13.86C18.28 13.34 18.02 12.41 18.02 11.8V8.91C18.02 5.61 15.32 2.91 12.02 2.91Z" stroke="#1F2937" stroke-width="1.5" stroke-miterlimit="10" stroke-linecap="round"/>
<path d="M13.87 3.19945C13.56 3.10945 13.24 3.03945 12.91 2.99945C11.95 2.87945 11.03 2.94945 10.17 3.19945C10.46 2.45945 11.18 1.93945 12.02 1.93945C12.86 1.93945 13.58 2.45945 13.87 3.19945Z" stroke="#1F2937" stroke-width="1.5" stroke-miterlimit="10" stroke-linecap="round" stroke-linejoin="round"/>
<path d="M15.02 19.0605C15.02 20.7105 13.67 22.0605 12.02 22.0605C11.2 22.0605 10.44 21.7205 9.89999 21.1805C9.35999 20.6405 9.01999 19.8805 9.01999 19.0605" stroke="#1F2937" stroke-width="1.5" stroke-miterlimit="10"/>
<circle cx="17" cy="5" r="2.5" fill="#E60076" stroke="#F4EAF1"/>
</svg>
